<svg width="181" height="74" viewBox="0 0 181 74" fill="none" xmlns="http://www.w3.org/2000/svg">
<path fill-rule="evenodd" clip-rule="evenodd" d="M0 0H49.8879V50.546H0V0Z" fill="#F24942"/>
<path d="M44.8957 25.3923C44.8957 30.051 44.01 34.0143 42.2387 37.2824C40.4813 40.5504 38.0823 43.0466 35.0417 44.7711C32.0151 46.4816 28.6119 47.3368 24.8321 47.3368C21.0244 47.3368 17.6073 46.4746 14.5807 44.7502C11.554 43.0258 9.16204 40.5296 7.40464 37.2615C5.64725 33.9935 4.76855 30.0371 4.76855 25.3923C4.76855 20.7336 5.64725 16.7702 7.40464 13.5022C9.16204 10.2341 11.554 7.74488 14.5807 6.03437C17.6073 4.30996 21.0244 3.44775 24.8321 3.44775C28.6119 3.44775 32.0151 4.30996 35.0417 6.03437C38.0823 7.74488 40.4813 10.2341 42.2387 13.5022C44.01 16.7702 44.8957 20.7336 44.8957 25.3923ZM35.7112 25.3923C35.7112 22.3746 35.2579 19.8297 34.3513 17.7576C33.4587 15.6855 32.1964 14.1141 30.5646 13.0433C28.9327 11.9725 27.0219 11.4371 24.8321 11.4371C22.6424 11.4371 20.7315 11.9725 19.0997 13.0433C17.4678 14.1141 16.1986 15.6855 15.292 17.7576C14.3993 19.8297 13.953 22.3746 13.953 25.3923C13.953 28.41 14.3993 30.9549 15.292 33.027C16.1986 35.0991 17.4678 36.6705 19.0997 37.7413C20.7315 38.8121 22.6424 39.3475 24.8321 39.3475C27.0219 39.3475 28.9327 38.8121 30.5646 37.7413C32.1964 36.6705 33.4587 35.0991 34.3513 33.027C35.2579 30.9549 35.7112 28.41 35.7112 25.3923Z" fill="white"/>
<path fill-rule="evenodd" clip-rule="evenodd" d="M177.898 42.4376L167.055 44.5461C166.402 44.6737 165.973 45.3074 166.101 45.9624L166.198 46.4664L168.973 45.9263L169.289 47.5553L166.515 48.0943L166.774 49.4224L169.547 48.8833L169.865 50.5112L167.091 51.0514L167.348 52.3794L170.122 51.8382L170.44 53.4683L167.665 54.0063L167.763 54.5103C167.89 55.1653 168.525 55.5938 169.18 55.4662L180.02 53.3587C180.675 53.2312 181.104 52.5964 180.977 51.9435L179.316 43.3924C179.188 42.7396 178.553 42.31 177.898 42.4376Z" fill="#333333"/>
<path fill-rule="evenodd" clip-rule="evenodd" d="M168.859 44.1933L167.998 39.769C167.602 37.7253 168.9 35.7518 170.896 35.3627C172.897 34.9745 174.838 36.3175 175.236 38.3633L176.096 42.7877L177.637 42.4878L176.748 37.9188C176.194 35.0692 173.437 33.2084 170.587 33.7624C167.737 34.3164 165.877 37.0756 166.431 39.9242L167.32 44.4953L168.859 44.1933Z" fill="#333333"/>
<path d="M68.1404 24.1642C67.3461 23.7325 66.4189 23.5156 65.3598 23.5156C63.9233 23.5156 62.8015 24.042 61.9923 25.0946C61.1842 26.1473 60.7802 27.5796 60.7802 29.3925V39.6172H54.1729V18.2055H60.7802V22.178H60.8631C61.9094 19.2784 63.7915 17.8291 66.5092 17.8291C67.2068 17.8291 67.7501 17.912 68.1404 18.079V24.1642Z" fill="#333333"/>
<path d="M77.8217 39.6159H71.2143V18.2042H77.8217V39.6159ZM74.5594 14.8155C73.444 14.8155 72.5317 14.4848 71.8204 13.8224C71.1091 13.161 70.7539 12.3486 70.7539 11.3864C70.7539 10.3975 71.1091 9.58834 71.8204 8.96099C72.5317 8.33364 73.444 8.01996 74.5594 8.01996C75.6887 8.01996 76.6052 8.33364 77.3091 8.96099C78.013 9.58834 78.365 10.3975 78.365 11.3864C78.365 12.3901 78.013 13.2131 77.3091 13.8543C76.6052 14.4954 75.6887 14.8155 74.5594 14.8155Z" fill="#333333"/>
<path d="M97.8537 29.3283V27.6344C97.8537 26.283 97.4529 25.1293 96.6511 24.1734C95.8494 23.2186 94.8074 22.7412 93.525 22.7412C92.0619 22.7412 90.9115 23.3132 90.0746 24.4562C89.2378 25.5993 88.8199 27.2091 88.8199 29.2858C88.8199 31.071 89.2176 32.482 90.0119 33.5209C90.8072 34.5587 91.8939 35.0786 93.2741 35.0786C94.6404 35.0786 95.7452 34.5523 96.5884 33.4996C97.4316 32.448 97.8537 31.0561 97.8537 29.3283ZM104.377 37.1701C104.377 41.1426 103.228 44.2198 100.928 46.4017C98.6278 48.5825 95.2954 49.6735 90.9327 49.6735C88.0469 49.6735 85.7598 49.263 84.0744 48.44V42.8779C86.2765 44.1603 88.4999 44.8014 90.7435 44.8014C92.9743 44.8014 94.7032 44.2134 95.9292 43.0353C97.1562 41.8571 97.7697 40.2569 97.7697 38.2355V36.5428H97.6857C96.1812 38.9405 93.9567 40.1389 91.0157 40.1389C88.284 40.1389 86.116 39.1766 84.5125 37.2531C82.9091 35.3295 82.1084 32.751 82.1084 29.5165C82.1084 25.8928 83.0005 23.0134 84.7847 20.8804C86.5689 18.7474 88.9178 17.6809 91.8312 17.6809C94.4384 17.6809 96.3896 18.6847 97.6857 20.6922H97.7697V18.2041H104.377V37.1701Z" fill="#333333"/>
<path d="M116.505 39.6159H109.898V18.2042H116.505V39.6159ZM113.243 14.8155C112.128 14.8155 111.215 14.4848 110.504 13.8224C109.793 13.161 109.438 12.3486 109.438 11.3864C109.438 10.3975 109.793 9.58834 110.504 8.96099C111.215 8.33364 112.128 8.01996 113.243 8.01996C114.372 8.01996 115.289 8.33364 115.993 8.96099C116.697 9.58834 117.049 10.3975 117.049 11.3864C117.049 12.3901 116.697 13.2131 115.993 13.8543C115.289 14.4954 114.372 14.8155 113.243 14.8155Z" fill="#333333"/>
<path d="M142.747 39.6173H136.161V27.72C136.161 24.4015 134.976 22.7427 132.606 22.7427C131.463 22.7427 130.522 23.1819 129.784 24.0602C129.044 24.9385 128.675 26.0539 128.675 27.4064V39.6173H122.067V18.2056H128.675V21.5922H128.759C130.333 18.9861 132.627 17.6825 135.638 17.6825C140.377 17.6825 142.747 20.6236 142.747 26.5068V39.6173Z" fill="#333333"/>
<path d="M159.58 30.9185V29.4755L155.691 29.9774C153.544 30.256 152.471 31.2257 152.471 32.8845C152.471 33.6362 152.733 34.254 153.255 34.7346C153.778 35.2152 154.485 35.4555 155.377 35.4555C156.618 35.4555 157.629 35.027 158.41 34.17C159.19 33.3119 159.58 32.2284 159.58 30.9185ZM165.791 39.6173H159.538V36.5433H159.455C158.019 38.941 155.893 40.1394 153.077 40.1394C151 40.1394 149.366 39.5514 148.173 38.3732C146.981 37.1951 146.386 35.6235 146.386 33.6575C146.386 29.5032 148.846 27.1055 153.767 26.4643L159.58 25.6902C159.58 23.3488 158.312 22.1781 155.775 22.1781C153.224 22.1781 150.798 22.9384 148.497 24.4568V19.4805C149.417 19.0063 150.675 18.5884 152.272 18.2258C153.868 17.8633 155.322 17.6825 156.632 17.6825C162.738 17.6825 165.791 20.7289 165.791 26.8205V39.6173Z" fill="#333333"/>
<path d="M177.626 39.6172H171.019V7.91705H177.626V39.6172Z" fill="#333333"/>
<path fill-rule="evenodd" clip-rule="evenodd" d="M162.031 36.3431H172.654V39.616H162.031V36.3431Z" fill="#333333"/>
<path d="M4.45115 71.4102C3.80125 71.4102 3.22192 71.2986 2.71316 71.0754C2.20769 70.8522 1.8056 70.5421 1.50691 70.1449C1.21151 69.7445 1.05067 69.28 1.02441 68.7516H2.26513C2.29139 69.0765 2.40298 69.3572 2.59992 69.5935C2.79686 69.8265 3.05452 70.0071 3.37291 70.1351C3.69129 70.2631 4.04414 70.3271 4.43145 70.3271C4.86472 70.3271 5.24875 70.2516 5.58354 70.1006C5.91834 69.9496 6.18092 69.7395 6.3713 69.4704C6.56167 69.2012 6.65686 68.8894 6.65686 68.5349C6.65686 68.164 6.56495 67.8374 6.38114 67.5552C6.19733 67.2696 5.92819 67.0464 5.5737 66.8856C5.21921 66.7247 4.78594 66.6443 4.2739 66.6443H3.46645V65.5612H4.2739C4.67434 65.5612 5.02555 65.489 5.32752 65.3445C5.63278 65.2001 5.87074 64.9966 6.04142 64.734C6.21539 64.4714 6.30237 64.1629 6.30237 63.8084C6.30237 63.467 6.22688 63.17 6.07589 62.9173C5.9249 62.6645 5.71155 62.4676 5.43584 62.3264C5.16341 62.1853 4.84174 62.1147 4.47084 62.1147C4.12291 62.1147 3.79468 62.1787 3.48615 62.3068C3.18089 62.4315 2.93144 62.6136 2.73778 62.8533C2.54412 63.0896 2.43909 63.3751 2.42268 63.7099H1.24105C1.26074 63.1815 1.41993 62.7187 1.71862 62.3215C2.01731 61.9211 2.40791 61.6093 2.89041 61.3861C3.37619 61.1629 3.90956 61.0513 4.49053 61.0513C5.11417 61.0513 5.64919 61.1776 6.09558 61.4304C6.54198 61.6798 6.88498 62.0097 7.12459 62.42C7.3642 62.8303 7.484 63.2734 7.484 63.7493C7.484 64.3172 7.33465 64.8013 7.03596 65.2018C6.74056 65.6022 6.33847 65.8795 5.82972 66.0338V66.1126C6.46648 66.2176 6.96375 66.4884 7.32153 66.925C7.6793 67.3582 7.85818 67.8949 7.85818 68.5349C7.85818 69.0831 7.70884 69.5754 7.41015 70.012C7.11474 70.4452 6.71102 70.7866 6.19898 71.0361C5.68694 71.2855 5.10433 71.4102 4.45115 71.4102Z" fill="#333333" fill-opacity="0.87"/>
<path d="M10.4627 71.2724H9.1826L12.885 61.1891H14.1454L17.8479 71.2724H16.5678L13.5546 62.7843H13.4759L10.4627 71.2724ZM10.9353 67.3336H16.0951V68.4168H10.9353V67.3336Z" fill="#333333" fill-opacity="0.87"/>
<path d="M31.156 70.1892L31.0182 73.6553H29.8168V71.2724H28.8518V70.1892H31.156ZM19.4185 61.1891H20.6395V70.1498H24.1844V61.1891H25.4054V70.1498H28.9503V61.1891H30.1713V71.2724H19.4185V61.1891Z" fill="#333333" fill-opacity="0.87"/>
<path d="M33.0122 61.1891H34.2135V69.1258H34.312L39.8262 61.1891H41.0079V71.2724H39.7868V63.3555H39.6884L34.1938 71.2724H33.0122V61.1891Z" fill="#333333" fill-opacity="0.87"/>
<path d="M42.8997 62.2723V61.1891H50.4622V62.2723H47.2914V71.2724H46.0704V62.2723H42.8997Z" fill="#333333" fill-opacity="0.87"/>
<path d="M51.5822 71.2724H50.3021L54.0046 61.1891H55.265L58.9674 71.2724H57.6873L54.6742 62.7843H54.5954L51.5822 71.2724ZM52.0549 67.3336H57.2147V68.4168H52.0549V67.3336Z" fill="#333333" fill-opacity="0.87"/>
<path d="M72.9452 66.2308C72.9452 67.2942 72.7531 68.2133 72.3691 68.9879C71.9851 69.7625 71.4583 70.3599 70.7887 70.78C70.1191 71.2002 69.3543 71.4102 68.4943 71.4102C67.6344 71.4102 66.8696 71.2002 66.2 70.78C65.5304 70.3599 65.0036 69.7625 64.6196 68.9879C64.2355 68.2133 64.0435 67.2942 64.0435 66.2308C64.0435 65.1673 64.2355 64.2482 64.6196 63.4736C65.0036 62.699 65.5304 62.1016 66.2 61.6815C66.8696 61.2613 67.6344 61.0513 68.4943 61.0513C69.3543 61.0513 70.1191 61.2613 70.7887 61.6815C71.4583 62.1016 71.9851 62.699 72.3691 63.4736C72.7531 64.2482 72.9452 65.1673 72.9452 66.2308ZM71.7635 66.2308C71.7635 65.3577 71.6175 64.6208 71.3253 64.0201C71.0365 63.4195 70.6443 62.9649 70.1486 62.6563C69.6563 62.3478 69.1049 62.1935 68.4943 62.1935C67.8838 62.1935 67.3308 62.3478 66.8351 62.6563C66.3428 62.9649 65.9506 63.4195 65.6584 64.0201C65.3696 64.6208 65.2252 65.3577 65.2252 66.2308C65.2252 67.1038 65.3696 67.8407 65.6584 68.4414C65.9506 69.0421 66.3428 69.4967 66.8351 69.8052C67.3308 70.1137 67.8838 70.268 68.4943 70.268C69.1049 70.268 69.6563 70.1137 70.1486 69.8052C70.6443 69.4967 71.0365 69.0421 71.3253 68.4414C71.6175 67.8407 71.7635 67.1038 71.7635 66.2308Z" fill="#333333" fill-opacity="0.87"/>
<path d="M74.0271 62.2723V61.1891H81.5895V62.2723H78.4188V71.2724H77.1978V62.2723H74.0271Z" fill="#333333" fill-opacity="0.87"/>
<path d="M94.9161 61.1891V71.2724H93.6951V62.2723H88.6141V71.2724H87.3931V61.1891H94.9161Z" fill="#333333" fill-opacity="0.87"/>
<path d="M105.887 66.2308C105.887 67.2942 105.695 68.2133 105.311 68.9879C104.927 69.7625 104.4 70.3599 103.73 70.78C103.061 71.2002 102.296 71.4102 101.436 71.4102C100.576 71.4102 99.8113 71.2002 99.1417 70.78C98.4721 70.3599 97.9453 69.7625 97.5612 68.9879C97.1772 68.2133 96.9852 67.2942 96.9852 66.2308C96.9852 65.1673 97.1772 64.2482 97.5612 63.4736C97.9453 62.699 98.4721 62.1016 99.1417 61.6815C99.8113 61.2613 100.576 61.0513 101.436 61.0513C102.296 61.0513 103.061 61.2613 103.73 61.6815C104.4 62.1016 104.927 62.699 105.311 63.4736C105.695 64.2482 105.887 65.1673 105.887 66.2308ZM104.705 66.2308C104.705 65.3577 104.559 64.6208 104.267 64.0201C103.978 63.4195 103.586 62.9649 103.09 62.6563C102.598 62.3478 102.047 62.1935 101.436 62.1935C100.826 62.1935 100.272 62.3478 99.7768 62.6563C99.2845 62.9649 98.8922 63.4195 98.6001 64.0201C98.3113 64.6208 98.1668 65.3577 98.1668 66.2308C98.1668 67.1038 98.3113 67.8407 98.6001 68.4414C98.8922 69.0421 99.2845 69.4967 99.7768 69.8052C100.272 70.1137 100.826 70.268 101.436 70.268C102.047 70.268 102.598 70.1137 103.09 69.8052C103.586 69.4967 103.978 69.0421 104.267 68.4414C104.559 67.8407 104.705 67.1038 104.705 66.2308Z" fill="#333333" fill-opacity="0.87"/>
<path d="M107.073 73.7144V70.1892H107.723C107.946 69.9857 108.157 69.6985 108.353 69.3276C108.554 68.9534 108.723 68.4545 108.861 67.8309C109.002 67.204 109.095 66.408 109.141 65.443L109.358 61.1891H115.345V70.1892H116.507V73.6947H115.345V71.2724H108.235V73.7144H107.073ZM109.181 70.1892H114.183V62.2723H110.461L110.303 65.443C110.264 66.1782 110.195 66.8445 110.096 67.4419C109.998 68.036 109.872 68.5628 109.717 69.0224C109.563 69.4786 109.384 69.8676 109.181 70.1892Z" fill="#333333" fill-opacity="0.87"/>
<path d="M117.959 73.7144V70.1892H118.609C118.832 69.9857 119.042 69.6985 119.239 69.3276C119.439 68.9534 119.609 68.4545 119.746 67.8309C119.888 67.204 119.981 66.408 120.027 65.443L120.244 61.1891H126.231V70.1892H127.393V73.6947H126.231V71.2724H119.121V73.7144H117.959ZM120.066 70.1892H125.069V62.2723H121.347L121.189 65.443C121.15 66.1782 121.081 66.8445 120.982 67.4419C120.884 68.036 120.757 68.5628 120.603 69.0224C120.449 69.4786 120.27 69.8676 120.066 70.1892Z" fill="#333333" fill-opacity="0.87"/>
<path d="M129.238 71.2724V61.1891H135.323V62.2723H130.459V65.6793H135.008V66.7625H130.459V70.1892H135.402V71.2724H129.238Z" fill="#333333" fill-opacity="0.87"/>
<path d="M136.657 71.2724V70.1498H136.953C137.373 70.1498 137.699 70.0153 137.932 69.7461C138.165 69.477 138.333 69.0421 138.435 68.4414C138.54 67.8407 138.61 67.0448 138.646 66.0535L138.824 61.1891H144.968V71.2724H143.747V62.2723H139.986L139.828 66.2898C139.789 67.3467 139.692 68.2461 139.537 68.9879C139.383 69.7297 139.112 70.2959 138.725 70.6865C138.338 71.0771 137.773 71.2724 137.031 71.2724H136.657Z" fill="#333333" fill-opacity="0.87"/>
<path d="M155.915 66.2308C155.915 67.2942 155.723 68.2133 155.339 68.9879C154.955 69.7625 154.428 70.3599 153.759 70.78C153.089 71.2002 152.325 71.4102 151.465 71.4102C150.605 71.4102 149.84 71.2002 149.17 70.78C148.501 70.3599 147.974 69.7625 147.59 68.9879C147.206 68.2133 147.014 67.2942 147.014 66.2308C147.014 65.1673 147.206 64.2482 147.59 63.4736C147.974 62.699 148.501 62.1016 149.17 61.6815C149.84 61.2613 150.605 61.0513 151.465 61.0513C152.325 61.0513 153.089 61.2613 153.759 61.6815C154.428 62.1016 154.955 62.699 155.339 63.4736C155.723 64.2482 155.915 65.1673 155.915 66.2308ZM154.734 66.2308C154.734 65.3577 154.588 64.6208 154.296 64.0201C154.007 63.4195 153.614 62.9649 153.119 62.6563C152.627 62.3478 152.075 62.1935 151.465 62.1935C150.854 62.1935 150.301 62.3478 149.805 62.6563C149.313 62.9649 148.921 63.4195 148.629 64.0201C148.34 64.6208 148.195 65.3577 148.195 66.2308C148.195 67.1038 148.34 67.8407 148.629 68.4414C148.921 69.0421 149.313 69.4967 149.805 69.8052C150.301 70.1137 150.854 70.268 151.465 70.268C152.075 70.268 152.627 70.1137 153.119 69.8052C153.614 69.4967 154.007 69.0421 154.296 68.4414C154.588 67.8407 154.734 67.1038 154.734 66.2308Z" fill="#333333" fill-opacity="0.87"/>
<path d="M163.896 71.2724L160.43 66.6443H159.189V71.2724H157.968V61.1891H159.189V65.5612H159.721L163.758 61.1891H165.216L161.139 65.6202L165.354 71.2724H163.896Z" fill="#333333" fill-opacity="0.87"/>
</svg>
