<svg width="300" height="100" viewBox="0 0 300 100" fill="none" xmlns="http://www.w3.org/2000/svg">
<rect width="300" height="100" rx="15" fill="#F9F5F1"/>
<path d="M105.144 63L116.304 37.44H119.976L131.136 63H126.744L123.828 56.304H112.38L109.5 63H105.144ZM118.104 43.128L114 52.56H122.208L118.104 43.128ZM137.921 70.524H133.961V45H137.921V47.412C138.473 46.644 139.265 45.996 140.297 45.468C141.353 44.916 142.493 44.64 143.717 44.64C146.165 44.64 148.217 45.552 149.873 47.376C151.553 49.2 152.393 51.408 152.393 54C152.393 56.592 151.553 58.8 149.873 60.624C148.217 62.448 146.165 63.36 143.717 63.36C142.493 63.36 141.353 63.096 140.297 62.568C139.265 62.016 138.473 61.356 137.921 60.588V70.524ZM142.997 59.76C144.557 59.76 145.841 59.208 146.849 58.104C147.857 57 148.361 55.632 148.361 54C148.361 52.368 147.857 51 146.849 49.896C145.841 48.792 144.557 48.24 142.997 48.24C141.413 48.24 140.117 48.792 139.109 49.896C138.101 51 137.597 52.368 137.597 54C137.597 55.632 138.101 57 139.109 58.104C140.117 59.208 141.413 59.76 142.997 59.76ZM160.386 70.524H156.426V45H160.386V47.412C160.938 46.644 161.73 45.996 162.762 45.468C163.818 44.916 164.958 44.64 166.182 44.64C168.63 44.64 170.682 45.552 172.338 47.376C174.018 49.2 174.858 51.408 174.858 54C174.858 56.592 174.018 58.8 172.338 60.624C170.682 62.448 168.63 63.36 166.182 63.36C164.958 63.36 163.818 63.096 162.762 62.568C161.73 62.016 160.938 61.356 160.386 60.588V70.524ZM165.462 59.76C167.022 59.76 168.306 59.208 169.314 58.104C170.322 57 170.826 55.632 170.826 54C170.826 52.368 170.322 51 169.314 49.896C168.306 48.792 167.022 48.24 165.462 48.24C163.878 48.24 162.582 48.792 161.574 49.896C160.566 51 160.062 52.368 160.062 54C160.062 55.632 160.566 57 161.574 58.104C162.582 59.208 163.878 59.76 165.462 59.76ZM193.699 63.36C191.563 63.36 189.763 62.832 188.299 61.776C186.859 60.72 186.091 59.304 185.995 57.528H190.099C190.387 59.304 191.623 60.192 193.807 60.192C194.695 60.192 195.403 60.036 195.931 59.724C196.459 59.388 196.723 58.908 196.723 58.284C196.723 57.66 196.519 57.168 196.111 56.808C195.703 56.448 195.019 56.148 194.059 55.908L191.107 55.116C188.035 54.3 186.499 52.488 186.499 49.68C186.499 48.168 187.111 46.956 188.335 46.044C189.559 45.108 191.179 44.64 193.195 44.64C195.139 44.64 196.735 45.132 197.983 46.116C199.231 47.1 199.927 48.408 200.071 50.04H196.111C195.727 48.552 194.743 47.808 193.159 47.808C192.367 47.808 191.731 47.976 191.251 48.312C190.771 48.624 190.531 49.068 190.531 49.644C190.531 50.676 191.335 51.396 192.943 51.804L195.967 52.596C199.159 53.412 200.755 55.224 200.755 58.032C200.755 59.736 200.095 61.056 198.775 61.992C197.479 62.904 195.787 63.36 193.699 63.36ZM212.226 63.18C210.402 63.18 208.914 62.676 207.762 61.668C206.634 60.636 206.07 59.148 206.07 57.204V48.528H202.326V45H206.07V39.996H210.03V45H215.178V48.528H210.03V56.556C210.03 57.66 210.27 58.452 210.75 58.932C211.23 59.388 211.998 59.616 213.054 59.616C213.918 59.616 214.626 59.496 215.178 59.256V62.784C214.314 63.048 213.33 63.18 212.226 63.18ZM233.519 60.66C231.719 62.46 229.487 63.36 226.823 63.36C224.159 63.36 221.915 62.46 220.091 60.66C218.291 58.836 217.391 56.616 217.391 54C217.391 51.384 218.291 49.176 220.091 47.376C221.915 45.552 224.159 44.64 226.823 44.64C229.487 44.64 231.719 45.552 233.519 47.376C235.343 49.176 236.255 51.384 236.255 54C236.255 56.616 235.343 58.836 233.519 60.66ZM226.823 59.688C228.383 59.688 229.667 59.148 230.675 58.068C231.707 56.964 232.223 55.608 232.223 54C232.223 52.392 231.707 51.048 230.675 49.968C229.667 48.864 228.383 48.312 226.823 48.312C225.239 48.312 223.931 48.864 222.899 49.968C221.891 51.048 221.387 52.392 221.387 54C221.387 55.608 221.891 56.964 222.899 58.068C223.931 59.148 225.239 59.688 226.823 59.688ZM240.238 63V45H244.198V48.204C244.534 47.196 245.146 46.38 246.034 45.756C246.946 45.132 247.918 44.82 248.95 44.82C249.574 44.82 250.09 44.868 250.498 44.964V49.032C249.922 48.816 249.262 48.708 248.518 48.708C247.318 48.708 246.298 49.2 245.458 50.184C244.618 51.144 244.198 52.488 244.198 54.216V63H240.238ZM261.237 63.36C258.549 63.36 256.341 62.484 254.613 60.732C252.885 58.956 252.021 56.712 252.021 54C252.021 51.288 252.873 49.056 254.577 47.304C256.281 45.528 258.513 44.64 261.273 44.64C264.057 44.64 266.301 45.612 268.005 47.556C269.709 49.476 270.465 51.948 270.273 54.972H255.945C255.993 56.364 256.521 57.528 257.529 58.464C258.537 59.4 259.821 59.868 261.381 59.868C263.589 59.868 265.101 59.028 265.917 57.348H270.057C269.505 59.1 268.449 60.54 266.889 61.668C265.329 62.796 263.445 63.36 261.237 63.36ZM261.165 47.952C259.869 47.952 258.753 48.324 257.817 49.068C256.905 49.788 256.317 50.82 256.053 52.164H266.025C265.737 50.772 265.149 49.728 264.261 49.032C263.373 48.312 262.341 47.952 261.165 47.952Z" fill="#333333"/>
<g clip-path="url(#clip0_173_4436)">
<path d="M40.702 21H73.298C80.3133 21 86 26.6867 86 33.702V66.298C86 73.3133 80.3133 79 73.298 79H40.702C33.6867 79 28 73.3133 28 66.298V33.702C28 26.6867 33.6867 21 40.702 21Z" fill="url(#paint0_linear_173_4436)"/>
<path d="M46.5875 63.0975L46.593 63.0993L44.6099 66.534C43.886 67.7878 42.2829 68.2174 41.0291 67.4935C39.7753 66.7696 39.3457 65.1665 40.0696 63.9127L41.5304 61.3824L41.6707 61.1396C41.921 60.7798 42.5389 60.1585 43.7748 60.2754C43.7748 60.2754 46.6831 60.591 46.8936 62.1027C46.8936 62.1027 46.9222 62.6 46.5875 63.0975ZM74.7137 54.325H68.5299C68.1087 54.2967 67.925 54.1462 67.8525 54.0588L67.8479 54.0509L61.2285 42.5854L61.2199 42.5911L60.8229 42.022C60.1722 41.0269 59.1391 43.5717 59.1391 43.5717C57.9055 46.4073 59.3142 49.6311 59.8052 50.6055L68.9996 66.5306C69.7232 67.7842 71.3263 68.214 72.5804 67.4899C73.8339 66.766 74.2637 65.1628 73.5396 63.909L71.2407 59.927C71.1961 59.8305 71.1186 59.5686 71.5901 59.5674H74.7137C76.1614 59.5674 77.335 58.3938 77.335 56.9461C77.335 55.4984 76.1614 54.325 74.7137 54.325ZM62.7027 57.8882C62.7027 57.8882 63.0328 59.5672 61.7557 59.5672H38.8957C37.448 59.5672 36.2744 58.3936 36.2744 56.9459C36.2744 55.4981 37.448 54.3245 38.8957 54.3245H44.7728C45.7216 54.2697 45.9464 53.7219 45.9464 53.7219L45.9518 53.7246L53.6232 40.4372L53.6209 40.4367C53.7607 40.18 53.6443 39.9374 53.6241 39.8991L51.0905 35.5108C50.3666 34.2572 50.7962 32.6538 52.05 31.9302C53.3038 31.2066 54.9069 31.6357 55.6308 32.8895L56.8057 34.9247L57.9786 32.8931C58.7025 31.6395 60.3057 31.2097 61.5595 31.9338C62.8133 32.6579 63.2428 34.2606 62.519 35.5144L51.8438 54.0042C51.7971 54.1168 51.7828 54.2935 52.1302 54.3245H58.5111L58.5124 54.3869C58.5124 54.3869 62.2004 54.4442 62.7027 57.8882Z" fill="white"/>
</g>
<defs>
<linearGradient id="paint0_linear_173_4436" x1="2928" y1="21" x2="2928" y2="5821" gradientUnits="userSpaceOnUse">
<stop stop-color="#17C9FB"/>
<stop offset="1" stop-color="#1A74E8"/>
</linearGradient>
<clipPath id="clip0_173_4436">
<rect width="58" height="58" fill="white" transform="translate(28 21)"/>
</clipPath>
</defs>
</svg>
