<svg width="25" height="24" viewBox="0 0 25 24" fill="none" xmlns="http://www.w3.org/2000/svg">
<path d="M14.3881 4.40625C14.4131 4.31027 14.475 4.22808 14.5604 4.17766C14.6458 4.12723 14.7477 4.11268 14.8438 4.13719C16.1714 4.48298 17.3827 5.17676 18.3527 6.14694C19.3227 7.11712 20.0163 8.32856 20.3619 9.65625C20.3874 9.75222 20.3737 9.85438 20.324 9.94032C20.2743 10.0263 20.1925 10.089 20.0966 10.1147C20.0661 10.1234 20.0345 10.1278 20.0028 10.1278C19.9199 10.1275 19.8394 10.0998 19.7739 10.0489C19.7084 9.99802 19.6617 9.92686 19.6409 9.84656C19.3281 8.64764 18.7014 7.55377 17.8252 6.67762C16.949 5.80147 15.8552 5.17471 14.6563 4.86188C14.5605 4.83673 14.4785 4.77471 14.4283 4.68935C14.378 4.60398 14.3636 4.50221 14.3881 4.40625ZM13.9063 7.86188C15.3125 8.23969 16.2603 9.1875 16.6381 10.5938C16.6589 10.674 16.7056 10.7452 16.7711 10.7961C16.8366 10.847 16.9171 10.8747 17 10.875C17.0317 10.875 17.0633 10.8706 17.0938 10.8619C17.1897 10.8362 17.2715 10.7735 17.3212 10.6875C17.3709 10.6016 17.3846 10.4994 17.3591 10.4034C16.9091 8.71594 15.7794 7.59094 14.0938 7.13719C14.0001 7.11907 13.903 7.13735 13.8223 7.18831C13.7416 7.23926 13.6834 7.31906 13.6595 7.41144C13.6356 7.50382 13.6478 7.60183 13.6937 7.68552C13.7395 7.76921 13.8155 7.83228 13.9063 7.86188ZM21.1194 17.1169C20.9638 18.2971 20.3837 19.3803 19.4875 20.164C18.5914 20.9477 17.4405 21.3782 16.25 21.375C9.01251 21.375 3.12501 15.4875 3.12501 8.25C3.12254 7.06001 3.55334 5.90982 4.33694 5.01425C5.12054 4.11868 6.20336 3.53899 7.38314 3.38344C7.62483 3.35405 7.86954 3.40387 8.08051 3.52542C8.29148 3.64696 8.45732 3.83367 8.55314 4.0575L10.5313 8.47688C10.6052 8.64824 10.6353 8.83531 10.619 9.02122C10.6026 9.20714 10.5403 9.38606 10.4375 9.54188C10.4291 9.55406 10.4206 9.56625 10.4113 9.5775L8.42376 11.9409C8.39257 11.9927 8.37471 12.0514 8.37176 12.1118C8.36882 12.1722 8.38088 12.2323 8.40689 12.2869C9.14188 13.7916 10.7178 15.3553 12.2403 16.0903C12.2953 16.1158 12.3557 16.1274 12.4162 16.1239C12.4767 16.1205 12.5355 16.1022 12.5872 16.0706L14.9188 14.0906L14.9544 14.0634C15.1104 13.9604 15.2897 13.8978 15.476 13.8815C15.6622 13.8651 15.8496 13.8954 16.0213 13.9697L20.4481 15.9534C20.6697 16.0498 20.8544 16.2151 20.9748 16.4246C21.0952 16.6341 21.1449 16.8769 21.1166 17.1169H21.1194ZM20.1491 16.6369L15.7203 14.6531C15.6665 14.6305 15.6081 14.6211 15.5499 14.6255C15.4917 14.6299 15.4354 14.648 15.3856 14.6784L13.0625 16.6584L13.0278 16.6847C12.8663 16.7925 12.6796 16.8567 12.4859 16.871C12.2922 16.8853 12.0981 16.8492 11.9225 16.7663C10.235 15.9516 8.55595 14.2838 7.74126 12.6159C7.65747 12.4417 7.62001 12.2488 7.63249 12.0558C7.64497 11.8629 7.70697 11.6764 7.81251 11.5144C7.82095 11.5013 7.83032 11.49 7.8397 11.4778L9.82626 9.11531C9.85604 9.06468 9.8735 9.00775 9.87725 8.94913C9.88099 8.89051 9.87091 8.83183 9.84782 8.77781L7.86595 4.35844C7.83802 4.28993 7.79045 4.23121 7.72923 4.18967C7.66801 4.14813 7.59587 4.12563 7.52189 4.125C7.5069 4.12407 7.49187 4.12407 7.47689 4.125C6.47775 4.25739 5.56103 4.74914 4.89813 5.50832C4.23523 6.26751 3.87152 7.24214 3.87501 8.25C3.87501 15.0731 9.42689 20.625 16.25 20.625C17.2579 20.6285 18.2325 20.2648 18.9917 19.6019C19.7509 18.939 20.2426 18.0223 20.375 17.0231C20.3836 16.9427 20.366 16.8616 20.3248 16.792C20.2836 16.7224 20.221 16.668 20.1463 16.6369H20.1491Z" fill="#333333"/>
</svg>
