<svg width="28" height="27" viewBox="0 0 28 27" fill="none" xmlns="http://www.w3.org/2000/svg">
<path d="M5.00078 11.7V10.8H4.10078V11.7H5.00078ZM12.2008 11.7V10.8H11.3008V11.7H12.2008ZM12.2008 18.9H11.3008V19.8H12.2008V18.9ZM24.8008 6.3H25.7008V5.9274L25.438 5.6628L24.8008 6.3ZM19.4008 0.9L20.038 0.2628L19.7734 0H19.4008V0.9ZM5.00078 12.6H6.80078V10.8H5.00078V12.6ZM5.90078 19.8V15.3H4.10078V19.8H5.90078ZM5.90078 15.3V11.7H4.10078V15.3H5.90078ZM6.80078 14.4H5.00078V16.2H6.80078V14.4ZM7.70078 13.5C7.70078 13.7387 7.60596 13.9676 7.43718 14.1364C7.26839 14.3052 7.03948 14.4 6.80078 14.4V16.2C7.51687 16.2 8.20362 15.9155 8.70997 15.4092C9.21632 14.9028 9.50078 14.2161 9.50078 13.5H7.70078ZM6.80078 12.6C7.03948 12.6 7.26839 12.6948 7.43718 12.8636C7.60596 13.0324 7.70078 13.2613 7.70078 13.5H9.50078C9.50078 12.7839 9.21632 12.0972 8.70997 11.5908C8.20362 11.0845 7.51687 10.8 6.80078 10.8V12.6ZM11.3008 11.7V18.9H13.1008V11.7H11.3008ZM12.2008 19.8H14.0008V18H12.2008V19.8ZM16.7008 17.1V13.5H14.9008V17.1H16.7008ZM14.0008 10.8H12.2008V12.6H14.0008V10.8ZM16.7008 13.5C16.7008 12.7839 16.4163 12.0972 15.91 11.5908C15.4036 11.0845 14.7169 10.8 14.0008 10.8V12.6C14.2395 12.6 14.4684 12.6948 14.6372 12.8636C14.806 13.0324 14.9008 13.2613 14.9008 13.5H16.7008ZM14.0008 19.8C14.7169 19.8 15.4036 19.5155 15.91 19.0092C16.4163 18.5028 16.7008 17.8161 16.7008 17.1H14.9008C14.9008 17.3387 14.806 17.5676 14.6372 17.7364C14.4684 17.9052 14.2395 18 14.0008 18V19.8ZM18.5008 10.8V19.8H20.3008V10.8H18.5008ZM19.4008 12.6H23.9008V10.8H19.4008V12.6ZM19.4008 16.2H22.1008V14.4H19.4008V16.2ZM4.10078 9V2.7H2.30078V9H4.10078ZM23.9008 6.3V9H25.7008V6.3H23.9008ZM5.00078 1.8H19.4008V0H5.00078V1.8ZM18.7636 1.5372L24.1636 6.9372L25.438 5.6628L20.038 0.2628L18.7636 1.5372ZM4.10078 2.7C4.10078 2.46131 4.1956 2.23239 4.36439 2.0636C4.53317 1.89482 4.76209 1.8 5.00078 1.8V0C4.2847 0 3.59794 0.284463 3.09159 0.790812C2.58524 1.29716 2.30078 1.98392 2.30078 2.7H4.10078ZM2.30078 21.6V24.3H4.10078V21.6H2.30078ZM5.00078 27H23.0008V25.2H5.00078V27ZM25.7008 24.3V21.6H23.9008V24.3H25.7008ZM23.0008 27C23.7169 27 24.4036 26.7155 24.91 26.2092C25.4163 25.7028 25.7008 25.0161 25.7008 24.3H23.9008C23.9008 24.5387 23.806 24.7676 23.6372 24.9364C23.4684 25.1052 23.2395 25.2 23.0008 25.2V27ZM2.30078 24.3C2.30078 25.0161 2.58524 25.7028 3.09159 26.2092C3.59794 26.7155 4.2847 27 5.00078 27V25.2C4.76209 25.2 4.53317 25.1052 4.36439 24.9364C4.1956 24.7676 4.10078 24.5387 4.10078 24.3H2.30078Z" fill="#E94E24"/>
</svg>
