<svg width="40" height="40" viewBox="0 0 40 40" fill="none" xmlns="http://www.w3.org/2000/svg">
<rect x="0.5" y="0.5" width="39" height="39" rx="19.5" stroke="#EF4942"/>
<path d="M26.6851 21.6268C27.2998 22.223 27.9519 22.8005 28.5108 23.4525C28.753 23.7506 28.9765 24.0487 29.1628 24.384C29.405 24.8684 29.1814 25.4087 28.753 25.4273H26.0516C25.3623 25.4832 24.8034 25.2038 24.3377 24.7194C23.9651 24.3468 23.6111 23.9369 23.2572 23.5457C23.1081 23.378 22.9591 23.229 22.7728 23.1172C22.4002 22.875 22.0835 22.9495 21.8786 23.3408C21.655 23.732 21.6177 24.1605 21.5991 24.6076C21.5618 25.241 21.3756 25.4087 20.7421 25.4459C19.3822 25.5018 18.0781 25.2969 16.8671 24.6076C15.8052 23.9928 14.9855 23.1358 14.259 22.1671C12.8617 20.2855 11.7998 18.1989 10.8311 16.0565C10.6075 15.5721 10.7752 15.3113 11.2968 15.3113C12.1724 15.2927 13.0667 15.2927 13.9423 15.3113C14.2962 15.3113 14.5384 15.5162 14.6688 15.8516C15.1532 17.0253 15.7307 18.143 16.4573 19.1677C16.6436 19.4471 16.8485 19.7266 17.128 19.9129C17.4447 20.1364 17.6868 20.0619 17.8359 19.708C17.929 19.4844 17.9663 19.2422 17.9849 19.0187C18.0594 18.1989 18.0594 17.3792 17.9477 16.5781C17.8731 16.0751 17.5937 15.7398 17.0721 15.6467C16.8112 15.5908 16.8485 15.4976 16.9789 15.3486C17.2025 15.0878 17.4074 14.9387 17.7986 14.9387H20.8539C21.3383 15.0319 21.4501 15.2554 21.506 15.7398V19.1304C21.506 19.3167 21.5991 19.8756 21.9344 20.006C22.1953 20.0992 22.3816 19.8756 22.5492 19.708C23.2758 18.9255 23.7974 18.0126 24.2632 17.0625C24.4681 16.6527 24.6544 16.2055 24.8221 15.7771C24.9525 15.4604 25.1574 15.2927 25.5114 15.3113H28.4549C28.548 15.3113 28.6226 15.3113 28.7157 15.3299C29.2187 15.4231 29.3491 15.628 29.2001 16.1124C28.9579 16.8762 28.4921 17.5096 28.0264 18.143C27.542 18.8137 27.0204 19.4844 26.5174 20.1551C26.0889 20.7699 26.1262 21.0866 26.6851 21.6268Z" fill="#333333"/>
</svg>
