<svg width="25" height="25" viewBox="0 0 25 25" fill="none" xmlns="http://www.w3.org/2000/svg">
<path d="M14.3881 4.90628C14.4131 4.8103 14.475 4.72811 14.5604 4.67769C14.6458 4.62726 14.7477 4.61271 14.8438 4.63722C16.1714 4.98301 17.3827 5.67679 18.3527 6.64697C19.3227 7.61715 20.0163 8.82859 20.3619 10.1563C20.3874 10.2523 20.3737 10.3544 20.324 10.4404C20.2743 10.5263 20.1925 10.589 20.0966 10.6147C20.0661 10.6234 20.0345 10.6278 20.0028 10.6278C19.9199 10.6276 19.8394 10.5998 19.7739 10.5489C19.7084 10.498 19.6617 10.4269 19.6409 10.3466C19.3281 9.14767 18.7014 8.0538 17.8252 7.17765C16.949 6.3015 15.8552 5.67474 14.6563 5.36191C14.5605 5.33677 14.4785 5.27474 14.4283 5.18938C14.378 5.10401 14.3636 5.00224 14.3881 4.90628ZM13.9063 8.36191C15.3125 8.73972 16.2603 9.68753 16.6381 11.0938C16.6589 11.1741 16.7056 11.2452 16.7711 11.2961C16.8366 11.347 16.9171 11.3748 17 11.375C17.0317 11.375 17.0633 11.3706 17.0938 11.3619C17.1897 11.3362 17.2715 11.2735 17.3212 11.1875C17.3709 11.1016 17.3846 10.9994 17.3591 10.9035C16.9091 9.21597 15.7794 8.09097 14.0938 7.63722C14.0001 7.6191 13.903 7.63738 13.8223 7.68834C13.7416 7.73929 13.6834 7.81909 13.6595 7.91147C13.6356 8.00385 13.6478 8.10187 13.6937 8.18555C13.7395 8.26924 13.8155 8.33231 13.9063 8.36191ZM21.1194 17.6169C20.9638 18.7972 20.3837 19.8804 19.4875 20.664C18.5914 21.4477 17.4405 21.8782 16.25 21.875C9.01251 21.875 3.12501 15.9875 3.12501 8.75003C3.12254 7.56005 3.55334 6.40985 4.33694 5.51428C5.12054 4.61872 6.20336 4.03902 7.38314 3.88347C7.62483 3.85408 7.86954 3.9039 8.08051 4.02545C8.29148 4.14699 8.45732 4.3337 8.55314 4.55753L10.5313 8.97691C10.6052 9.14827 10.6353 9.33534 10.619 9.52125C10.6026 9.70717 10.5403 9.8861 10.4375 10.0419C10.4291 10.0541 10.4206 10.0663 10.4113 10.0775L8.42376 12.441C8.39257 12.4927 8.37471 12.5514 8.37176 12.6118C8.36882 12.6722 8.38088 12.7323 8.40689 12.7869C9.14188 14.2916 10.7178 15.8553 12.2403 16.5903C12.2953 16.6158 12.3557 16.6274 12.4162 16.624C12.4767 16.6205 12.5355 16.6022 12.5872 16.5707L14.9188 14.5907L14.9544 14.5635C15.1104 14.4604 15.2897 14.3979 15.476 14.3815C15.6622 14.3651 15.8496 14.3954 16.0213 14.4697L20.4481 16.4535C20.6697 16.5499 20.8544 16.7151 20.9748 16.9246C21.0952 17.1342 21.1449 17.3769 21.1166 17.6169H21.1194ZM20.1491 17.1369L15.7203 15.1532C15.6665 15.1306 15.6081 15.1211 15.5499 15.1255C15.4917 15.1299 15.4354 15.148 15.3856 15.1785L13.0625 17.1585L13.0278 17.1847C12.8663 17.2926 12.6796 17.3568 12.4859 17.3711C12.2922 17.3854 12.0981 17.3493 11.9225 17.2663C10.235 16.4516 8.55595 14.7838 7.74126 13.116C7.65747 12.9417 7.62001 12.7488 7.63249 12.5558C7.64497 12.3629 7.70697 12.1764 7.81251 12.0144C7.82095 12.0013 7.83032 11.99 7.8397 11.9778L9.82626 9.61534C9.85604 9.56471 9.8735 9.50778 9.87725 9.44916C9.88099 9.39054 9.87091 9.33186 9.84782 9.27784L7.86595 4.85847C7.83802 4.78996 7.79045 4.73124 7.72923 4.6897C7.66801 4.64816 7.59587 4.62566 7.52189 4.62503C7.5069 4.6241 7.49187 4.6241 7.47689 4.62503C6.47775 4.75742 5.56103 5.24917 4.89813 6.00835C4.23523 6.76754 3.87152 7.74217 3.87501 8.75003C3.87501 15.5732 9.42689 21.125 16.25 21.125C17.2579 21.1285 18.2325 20.7648 18.9917 20.1019C19.7509 19.439 20.2426 18.5223 20.375 17.5232C20.3836 17.4427 20.366 17.3616 20.3248 17.292C20.2836 17.2224 20.221 17.168 20.1463 17.1369H20.1491Z" fill="#FDFFFE"/>
</svg>
