<svg width="26" height="26" viewBox="0 0 26 26" fill="none" xmlns="http://www.w3.org/2000/svg">
<path d="M9.5625 12.6906C10.3588 14.3349 11.6884 15.6612 13.3348 16.4532C13.4563 16.5107 13.5906 16.5356 13.7246 16.5254C13.8586 16.5152 13.9876 16.4704 14.099 16.3952L16.5171 14.7798C16.624 14.7074 16.7474 14.6632 16.876 14.6513C17.0045 14.6395 17.134 14.6604 17.2522 14.7121L21.779 16.6563C21.9337 16.7207 22.063 16.8342 22.1469 16.9793C22.2308 17.1243 22.2647 17.2929 22.2433 17.4592C22.0998 18.579 21.5532 19.6082 20.7058 20.3541C19.8583 21.1001 18.7681 21.5117 17.6391 21.512C14.1503 21.512 10.8043 20.126 8.33732 17.659C5.87032 15.192 4.48438 11.8461 4.48438 8.35722C4.48463 7.22823 4.89625 6.13801 5.64221 5.29057C6.38818 4.44313 7.41737 3.89653 8.5372 3.75305C8.70342 3.7317 8.87204 3.76558 9.01711 3.84948C9.16217 3.93337 9.27564 4.06263 9.34003 4.21734L11.2842 8.7538C11.3348 8.87021 11.3559 8.99726 11.3458 9.12377C11.3357 9.25028 11.2946 9.37236 11.2262 9.47924L9.61086 11.9361C9.53895 12.0472 9.49674 12.1749 9.48827 12.307C9.47981 12.4391 9.50536 12.5712 9.5625 12.6906V12.6906Z" stroke="#FDFEFF" stroke-width="1.5" stroke-linecap="round" stroke-linejoin="round"/>
</svg>
