<svg width="40" height="40" viewBox="0 0 40 40" fill="none" xmlns="http://www.w3.org/2000/svg">
<rect x="0.5" y="0.5" width="39" height="39" rx="19.5" stroke="#EF4942"/>
<g clip-path="url(#clip0_30_1100)">
<path d="M13.3806 20.801C12.8233 21.8965 13.456 22.4201 14.8997 23.3147C16.1269 24.0728 17.8224 24.3501 18.9115 24.461C18.4651 24.8901 20.5106 22.9228 14.6197 28.5892C13.3706 29.7865 15.3815 31.7074 16.6297 30.5356L20.0088 27.2765C21.3024 28.521 22.5424 29.7138 23.3878 30.5401C24.6369 31.7165 26.6469 29.8119 25.4115 28.5938C25.3188 28.5056 20.8324 24.2019 21.106 24.4656C22.2088 24.3547 23.8788 24.061 25.0915 23.3192L25.0906 23.3183C26.5342 22.4192 27.1669 21.8965 26.6178 20.801C26.286 20.1792 25.3915 19.6592 24.2006 20.5583C24.2006 20.5583 22.5924 21.7901 19.9988 21.7901C17.4042 21.7901 15.7969 20.5583 15.7969 20.5583C14.6069 19.6547 13.7088 20.1792 13.3806 20.801V20.801Z" fill="#333333"/>
<path d="M20.0024 20.1291C23.1642 20.1291 25.746 17.6582 25.746 14.6164C25.746 11.5619 23.1642 9.09094 20.0024 9.09094C16.8396 9.09094 14.2578 11.5619 14.2578 14.6164C14.2578 17.6582 16.8396 20.1291 20.0024 20.1291ZM20.0024 11.89C21.556 11.89 22.8233 13.1091 22.8233 14.6164C22.8233 16.1109 21.556 17.33 20.0024 17.33C18.4487 17.33 17.1814 16.1109 17.1814 14.6164C17.1805 13.1082 18.4478 11.89 20.0024 11.89V11.89Z" fill="#333333"/>
</g>
<defs>
<clipPath id="clip0_30_1100">
<rect width="21.8182" height="21.8182" fill="white" transform="translate(9.09375 9.09094)"/>
</clipPath>
</defs>
</svg>
