<svg width="40" height="40" viewBox="0 0 40 40" fill="none" xmlns="http://www.w3.org/2000/svg">
<path d="M34.375 23.75C34.375 23.9158 34.3092 24.0747 34.1919 24.1919C34.0747 24.3092 33.9158 24.375 33.75 24.375H29.375V28.125H32.5C32.6658 28.125 32.8247 28.1908 32.9419 28.3081C33.0592 28.4253 33.125 28.5842 33.125 28.75C33.125 28.9158 33.0592 29.0747 32.9419 29.1919C32.8247 29.3092 32.6658 29.375 32.5 29.375H29.375V32.5C29.375 32.6658 29.3092 32.8247 29.1919 32.9419C29.0747 33.0592 28.9158 33.125 28.75 33.125C28.5842 33.125 28.4253 33.0592 28.3081 32.9419C28.1908 32.8247 28.125 32.6658 28.125 32.5V23.75C28.125 23.5842 28.1908 23.4253 28.3081 23.3081C28.4253 23.1908 28.5842 23.125 28.75 23.125H33.75C33.9158 23.125 34.0747 23.1908 34.1919 23.3081C34.3092 23.4253 34.375 23.5842 34.375 23.75ZM13.75 26.875C13.75 27.8696 13.3549 28.8234 12.6517 29.5267C11.9484 30.2299 10.9946 30.625 10 30.625H8.125V32.5C8.125 32.6658 8.05915 32.8247 7.94194 32.9419C7.82473 33.0592 7.66576 33.125 7.5 33.125C7.33424 33.125 7.17527 33.0592 7.05806 32.9419C6.94085 32.8247 6.875 32.6658 6.875 32.5V23.75C6.875 23.5842 6.94085 23.4253 7.05806 23.3081C7.17527 23.1908 7.33424 23.125 7.5 23.125H10C10.9946 23.125 11.9484 23.5201 12.6517 24.2233C13.3549 24.9266 13.75 25.8804 13.75 26.875ZM12.5 26.875C12.5 26.212 12.2366 25.5761 11.7678 25.1072C11.2989 24.6384 10.663 24.375 10 24.375H8.125V29.375H10C10.663 29.375 11.2989 29.1116 11.7678 28.6428C12.2366 28.1739 12.5 27.538 12.5 26.875ZM25 28.125C25 29.4511 24.4732 30.7229 23.5355 31.6605C22.5979 32.5982 21.3261 33.125 20 33.125H17.5C17.3342 33.125 17.1753 33.0592 17.0581 32.9419C16.9408 32.8247 16.875 32.6658 16.875 32.5V23.75C16.875 23.5842 16.9408 23.4253 17.0581 23.3081C17.1753 23.1908 17.3342 23.125 17.5 23.125H20C21.3261 23.125 22.5979 23.6518 23.5355 24.5895C24.4732 25.5271 25 26.7989 25 28.125ZM23.75 28.125C23.75 27.1304 23.3549 26.1766 22.6517 25.4733C21.9484 24.7701 20.9946 24.375 20 24.375H18.125V31.875H20C20.9946 31.875 21.9484 31.4799 22.6517 30.7767C23.3549 30.0734 23.75 29.1196 23.75 28.125ZM6.875 17.5V6.25C6.875 5.75272 7.07254 5.27581 7.42417 4.92418C7.77581 4.57254 8.25272 4.375 8.75 4.375H23.75C23.8321 4.37494 23.9134 4.39105 23.9893 4.42241C24.0652 4.45378 24.1341 4.49979 24.1922 4.55781L32.9422 13.3078C33.0002 13.3659 33.0462 13.4348 33.0776 13.5107C33.109 13.5866 33.1251 13.6679 33.125 13.75V17.5C33.125 17.6658 33.0592 17.8247 32.9419 17.9419C32.8247 18.0592 32.6658 18.125 32.5 18.125C32.3342 18.125 32.1753 18.0592 32.0581 17.9419C31.9408 17.8247 31.875 17.6658 31.875 17.5V14.375H23.75C23.5842 14.375 23.4253 14.3092 23.3081 14.1919C23.1908 14.0747 23.125 13.9158 23.125 13.75V5.625H8.75C8.58424 5.625 8.42527 5.69085 8.30806 5.80806C8.19085 5.92527 8.125 6.08424 8.125 6.25V17.5C8.125 17.6658 8.05915 17.8247 7.94194 17.9419C7.82473 18.0592 7.66576 18.125 7.5 18.125C7.33424 18.125 7.17527 18.0592 7.05806 17.9419C6.94085 17.8247 6.875 17.6658 6.875 17.5ZM24.375 13.125H30.9906L24.375 6.50781V13.125Z" fill="#EF4942"/>
</svg>
