<svg width="14" height="8" viewBox="0 0 14 8" fill="none" xmlns="http://www.w3.org/2000/svg">
<g clip-path="url(#clip0_131_2895)">
<path d="M6.56386 0.66532L0.1664 6.60553C0.0595999 6.70465 -5.802e-08 6.83633 -4.60492e-08 6.97326C-3.40775e-08 7.1102 0.0595999 7.24188 0.1664 7.341L0.1736 7.34739C0.2254 7.39561 0.2877 7.434 0.3568 7.46024C0.4259 7.48647 0.5002 7.5 0.5754 7.5C0.6506 7.5 0.725 7.48647 0.794 7.46024C0.8631 7.434 0.9254 7.39561 0.9772 7.34739L7.0012 1.75359L13.0228 7.34739C13.0746 7.39561 13.1369 7.434 13.206 7.46023C13.275 7.48647 13.3494 7.5 13.4246 7.5C13.4998 7.5 13.5741 7.48647 13.6432 7.46023C13.7123 7.434 13.7746 7.39561 13.8264 7.34739L13.8336 7.341C13.9404 7.24188 14 7.1102 14 6.97326C14 6.83633 13.9404 6.70465 13.8336 6.60553L7.43614 0.66532C7.37988 0.61308 7.31221 0.571489 7.23724 0.543069C7.16227 0.514649 7.08156 0.5 7 0.5C6.91844 0.5 6.83773 0.51465 6.76276 0.54307C6.68779 0.57149 6.62012 0.61308 6.56386 0.66532Z" fill="#333333"/>
</g>
<defs>
<clipPath id="clip0_131_2895">
<rect width="14" height="8" fill="white" transform="translate(14 8) rotate(180)"/>
</clipPath>
</defs>
</svg>
