<svg width="14" height="8" viewBox="0 0 14 8" fill="none" xmlns="http://www.w3.org/2000/svg">
<path d="M7.43614 7.33468L13.8336 1.39447C13.9404 1.29535 14 1.16367 14 1.02674C14 0.8898 13.9404 0.758119 13.8336 0.659003L13.8264 0.652607C13.7746 0.604392 13.7123 0.565999 13.6432 0.539763C13.5741 0.513528 13.4998 0.499999 13.4246 0.499999C13.3494 0.499999 13.275 0.513528 13.206 0.539764C13.1369 0.565999 13.0746 0.604392 13.0228 0.652608L6.9988 6.24641L0.977208 0.652609C0.925434 0.604393 0.863115 0.566 0.79404 0.539765C0.724965 0.513529 0.65058 0.5 0.575408 0.5C0.500237 0.5 0.425852 0.513529 0.356778 0.539765C0.287702 0.566 0.225382 0.604393 0.173608 0.652609L0.166378 0.659004C0.0595793 0.75812 3.75792e-07 0.889801 3.87764e-07 1.02674C3.99735e-07 1.16367 0.0595793 1.29535 0.166378 1.39447L6.56386 7.33468C6.62012 7.38692 6.68779 7.42851 6.76276 7.45693C6.83773 7.48535 6.91844 7.5 7 7.5C7.08156 7.5 7.16227 7.48535 7.23724 7.45693C7.31221 7.42851 7.37988 7.38692 7.43614 7.33468Z" fill="#333333"/>
</svg>
