<svg width="110" height="100" viewBox="0 0 110 100" fill="none" xmlns="http://www.w3.org/2000/svg">
<path d="M85.4111 49.3114C87.8071 46.7508 88.7356 43.1775 87.8085 39.7753C86.9068 36.3705 84.318 33.7457 80.9708 32.7209L75.7612 13.2567C75.1458 10.9088 73.008 9.26996 70.5624 9.26996C70.0915 9.26996 69.6232 9.33284 69.167 9.45458C67.7877 9.82115 66.6318 10.7068 65.9121 11.9456C65.1923 13.1871 64.9983 14.6307 65.3676 16.0113L65.6004 16.8796L32.1103 40.2476L11.3938 49.967C9.54227 50.858 8.58304 52.7617 8.91616 54.6989L8.12283 54.9076C6.2445 55.4361 5.17958 57.3024 5.69465 59.1432L7.01108 64.0865C7.40039 65.5969 8.77703 66.6525 10.3584 66.6525C10.6447 66.6525 10.9309 66.6164 11.2279 66.5388L12.028 66.3167C12.6942 68.0318 14.3117 69.169 16.1244 69.169C16.2636 69.169 16.4027 69.1623 16.5432 69.1476L27.2552 68.2419L39.3841 89.266C40.5159 91.2018 42.615 92.4045 44.8612 92.4045C45.9408 92.4045 47.0151 92.1169 47.9904 91.563C50.9657 89.8051 51.9972 85.9522 50.2888 82.9715L48.5991 80.0443L50.4319 79.0061C51.9678 78.0589 52.4936 76.0321 51.6012 74.4869C50.7356 72.9872 48.6821 72.3865 47.0579 73.2882L45.296 74.321L41.2999 67.3963L80.0329 70.6981L80.2697 71.5798C80.8945 73.9237 83.0257 75.5612 85.4525 75.5612C85.9154 75.5612 86.377 75.4996 86.8265 75.3792C89.6868 74.6167 91.3912 71.6587 90.6259 68.785L85.4111 49.3114ZM48.381 75.6147C48.6513 75.4635 49.066 75.4555 49.2827 75.8274C49.454 76.1244 49.3376 76.5378 49.07 76.7037L47.2626 77.7258L46.6338 76.6381L48.381 75.6147ZM85.2238 40.471C85.7442 42.3774 85.4659 44.3561 84.5308 46.0257L81.8497 36.0093C83.4899 36.9913 84.7181 38.5606 85.2238 40.471ZM10.539 63.9527C10.1577 64.0584 9.70014 63.7935 9.60114 63.4069L8.27668 58.4368C8.15895 58.0181 8.40511 57.6074 8.82519 57.4883L9.57171 57.293L10.0814 59.19L11.2989 63.7454L10.539 63.9527ZM16.301 66.4839C15.4408 66.5682 14.6756 66.0184 14.4428 65.1555L14.2354 64.3809C14.2314 64.3635 14.2367 64.3474 14.2327 64.33L12.6688 58.5118L11.5892 54.4702C11.343 53.6139 11.731 52.7738 12.543 52.3831L31.9136 43.2952L35.0254 54.8942L37.6489 64.6912L16.301 66.4839ZM46.6459 89.2486C44.9241 90.2265 42.6551 89.5616 41.6959 87.9228L30.2012 67.9957L38.1707 67.3321L47.9663 84.3066C48.9496 86.0204 48.3476 88.2425 46.6459 89.2486ZM40.4089 64.6377L37.6409 54.323L34.3311 41.9614L66.3375 19.6288L79.2931 67.9529L40.4089 64.6377ZM86.1348 72.7959C84.7274 73.1718 83.225 72.2888 82.8531 70.8908L67.9523 15.3197C67.769 14.6307 67.8667 13.9096 68.2265 13.2875C68.5891 12.6654 69.167 12.2212 69.8574 12.0366C70.0888 11.9751 70.3256 11.9443 70.5624 11.9443C71.7919 11.9443 72.8648 12.7631 73.1739 13.9417L88.0372 69.478C88.4172 70.9001 87.5449 72.4199 86.1348 72.7959Z" fill="#EF4942"/>
<path d="M104.063 35.422C103.87 34.7089 103.138 34.2835 102.422 34.4775L93.4041 36.9016C92.691 37.0943 92.2669 37.8274 92.4596 38.5418C92.6201 39.1385 93.1592 39.5318 93.7506 39.5318C93.8656 39.5318 93.9833 39.5171 94.0997 39.4863L103.118 37.0622C103.831 36.8695 104.255 36.135 104.063 35.422Z" fill="#EF4942"/>
<path d="M100.873 54.0729L92.7819 49.4038C92.1424 49.0346 91.3237 49.254 90.9544 49.8935C90.5852 50.533 90.8046 51.3517 91.4441 51.721L99.5353 56.39C99.7454 56.5118 99.9755 56.5693 100.203 56.5693C100.666 56.5693 101.115 56.3285 101.363 55.9004C101.733 55.2609 101.514 54.4421 100.873 54.0729Z" fill="#EF4942"/>
<path d="M85.4861 29.4404C85.6975 29.5635 85.9289 29.621 86.1563 29.621C86.6179 29.621 87.0674 29.3815 87.3149 28.9547L91.9853 20.8996C92.3559 20.2588 92.1378 19.4414 91.4997 19.0708C90.8575 18.6989 90.0401 18.9183 89.6708 19.5564L85.0004 27.6116C84.6299 28.251 84.8479 29.0698 85.4861 29.4404Z" fill="#EF4942"/>
<path d="M18.1357 54.9558L27.9033 52.3537C28.6163 52.1637 29.0418 51.4319 28.8505 50.7162C28.6605 50.0018 27.9287 49.575 27.213 49.769L17.4454 52.3711C16.7323 52.5611 16.3069 53.2929 16.4982 54.0086C16.6574 54.6066 17.1979 55.0013 17.7892 55.0013C17.9056 55.0013 18.0207 54.9879 18.1357 54.9558Z" fill="#EF4942"/>
<path d="M19.3917 59.5151C21.262 59.0014 23.1336 58.4997 25.0106 57.9953L29.1566 56.8782C29.8683 56.6843 30.2897 55.9498 30.0958 55.2367C29.9018 54.5237 29.166 54.0982 28.4529 54.2962L24.3176 55.4106C22.434 55.9163 20.5583 56.4194 18.6827 56.9358C17.9696 57.1311 17.5508 57.8669 17.7475 58.58C17.9094 59.174 18.4485 59.5633 19.0358 59.5633C19.1536 59.5633 19.2726 59.5486 19.3917 59.5151Z" fill="#EF4942"/>
<path d="M31.3029 59.8054C31.1115 59.091 30.3811 58.6669 29.6653 58.8582L19.8978 61.4603C19.1847 61.6503 18.7593 62.3821 18.9506 63.0978C19.1098 63.6958 19.6503 64.0905 20.2416 64.0905C20.3567 64.0905 20.4717 64.0758 20.5881 64.045L30.3557 61.4429C31.0687 61.253 31.4942 60.5198 31.3029 59.8054Z" fill="#EF4942"/>
</svg>
