<svg width="110" height="100" viewBox="0 0 110 100" fill="none" xmlns="http://www.w3.org/2000/svg">
<g clip-path="url(#clip0_55_1144)">
<path d="M17.3185 78.0307H29.3352C29.979 78.0307 30.4999 77.5092 30.4999 76.866V53.1163C30.4999 52.4731 29.979 51.9516 29.3352 51.9516H26.7396V47.4702C26.7396 44.2653 27.2904 41.1479 28.3192 38.1698L28.986 38.4295C30.5966 39.0756 32.4483 38.3556 33.1922 36.7939C37.3221 28.1627 45.8367 22.801 55.4126 22.801C64.9884 22.801 73.503 28.1627 77.6318 36.7917C78.1926 37.9689 79.3778 38.6678 80.6141 38.6678C81.0202 38.6678 81.4319 38.5922 81.83 38.4329L82.5058 38.1697C83.5346 41.1477 84.0855 44.2653 84.0855 47.4702V51.9516H81.4899C80.8462 51.9516 80.3252 52.4731 80.3252 53.1163V76.866C80.3252 77.5092 80.8462 78.0307 81.4899 78.0307H87.9259C87.3513 82.4761 83.5501 85.9243 78.9512 85.9243H70.8739C70.3349 83.3508 68.0501 81.4116 65.3183 81.4116H58.3186C55.1885 81.4116 52.6418 83.9583 52.6418 87.089C52.6418 90.2197 55.1885 92.7664 58.3186 92.7664H65.3183C68.0501 92.7664 70.3349 90.8271 70.8739 88.2537H78.9512C84.8377 88.2537 89.6946 83.7647 90.2797 78.0307H93.5066C96.713 78.0307 99.3222 75.422 99.3222 72.2157V57.7666C99.3222 54.5603 96.713 51.9516 93.5066 51.9516H92.8219V47.4702C92.8219 43.1923 92.0896 39.0026 90.66 34.994L91.2455 34.7659C91.2489 34.7648 91.2523 34.7637 91.2546 34.7625C92.1145 34.4213 92.7776 33.761 93.1211 32.904C93.4646 32.0504 93.4395 31.0768 93.054 30.2334C86.2454 15.3208 71.822 6.05719 55.4126 6.05719C39.0032 6.05719 24.5797 15.3208 17.7723 30.2328C17.3856 31.0768 17.3606 32.0504 17.7041 32.904C18.0476 33.761 18.7107 34.4213 19.5797 34.7659L20.1651 34.994C18.7355 39.0025 18.0032 43.1923 18.0032 47.4702V51.9516H17.3185C14.1121 51.9516 11.5029 54.5603 11.5029 57.7666V72.2157C11.5029 75.422 14.1121 78.0307 17.3185 78.0307ZM65.3183 90.4369H58.3186C56.4726 90.4369 54.9713 88.935 54.9713 87.089C54.9713 85.243 56.4726 83.741 58.3186 83.741H65.3183C67.1643 83.741 68.6668 85.243 68.6668 87.089C68.6668 88.935 67.1643 90.4369 65.3183 90.4369ZM93.5066 54.281C95.4289 54.281 96.9928 55.8444 96.9928 57.7666V72.2157C96.9928 74.1379 95.4289 75.7013 93.5066 75.7013H82.6546V54.281H93.5066ZM84.7016 37.3145L88.4897 35.8392C89.8138 39.577 90.4925 43.4827 90.4925 47.4702V51.9516H86.4149V47.4702C86.4149 43.9732 85.836 40.5636 84.7016 37.3145ZM19.8652 32.0362C19.7582 31.7683 19.7673 31.472 19.8913 31.2013C26.3154 17.1287 39.9268 8.3866 55.4126 8.3866C70.8984 8.3866 84.5097 17.1287 90.935 31.2019C91.0578 31.472 91.0669 31.7683 90.96 32.0362C90.8565 32.2938 90.6574 32.4928 90.3981 32.5963L80.9747 36.2662C80.5027 36.455 79.9487 36.24 79.7349 35.7885C75.2126 26.3406 65.8938 20.4716 55.4126 20.4716C44.9314 20.4716 35.6126 26.3406 31.0891 35.7907C30.8753 36.2412 30.3191 36.4544 29.8414 36.2628L20.4304 32.598C20.17 32.4945 19.9698 32.2949 19.8652 32.0362ZM26.1235 37.3147C24.989 40.5636 24.4102 43.9733 24.4102 47.4702V51.9516H20.3326V47.4702C20.3326 43.4827 21.0113 39.577 22.3354 35.8392L26.1235 37.3147ZM13.8323 57.7666C13.8323 55.8444 15.3963 54.281 17.3185 54.281H28.1705V75.7013H17.3185C15.3963 75.7013 13.8323 74.1379 13.8323 72.2157V57.7666Z" fill="#EF4942"/>
<path d="M39.1725 82.2891C39.4455 82.3591 39.7196 82.3932 39.9892 82.3932C41.1289 82.3932 42.181 81.7841 42.7565 80.7354L48.7825 69.7555C50.9106 70.5653 53.1365 70.9748 55.4136 70.9748C65.756 70.9748 74.1694 62.5614 74.1694 52.2195C74.1694 41.8776 65.756 33.4636 55.4136 33.4636C45.0711 33.4636 36.6577 41.8776 36.6577 52.2195C36.6577 52.9025 36.776 79.2022 36.776 79.2022C36.776 80.6814 37.7394 81.9223 39.1725 82.2891ZM55.4136 35.793C64.4708 35.793 71.84 43.1617 71.84 52.2195C71.84 61.2767 64.4708 68.6454 55.4136 68.6454C53.108 68.6454 50.8617 68.1648 48.737 67.2179C48.1797 66.9688 47.5313 67.19 47.2413 67.7212L40.7137 79.6151C40.418 80.1542 39.9016 80.0718 39.7503 80.0325C39.5991 79.9939 39.1054 79.8193 39.1054 79.1971C39.1054 79.1971 38.9871 52.9025 38.9871 52.2195C38.9871 43.1617 46.3564 35.793 55.4136 35.793Z" fill="#EF4942"/>
<path d="M51.99 60.9957H58.8281V51.3181H51.99V60.9957ZM54.3194 53.6475H56.4987V58.6663H54.3194V53.6475Z" fill="#EF4942"/>
<path d="M55.4136 50.2785C57.412 50.2785 59.0374 48.6525 59.0374 46.6541C59.0374 44.6557 57.412 43.0303 55.4136 43.0303C53.4152 43.0303 51.7898 44.6557 51.7898 46.6541C51.7898 48.6525 53.4152 50.2785 55.4136 50.2785ZM55.4136 45.3597C56.1267 45.3597 56.7079 45.9404 56.7079 46.6541C56.7079 47.3684 56.1267 47.9491 55.4136 47.9491C54.7004 47.9491 54.1192 47.3684 54.1192 46.6541C54.1192 45.9404 54.7004 45.3597 55.4136 45.3597Z" fill="#EF4942"/>
</g>
<defs>
<clipPath id="clip0_55_1144">
<rect width="110" height="100" fill="white"/>
</clipPath>
</defs>
</svg>
