<svg width="110" height="100" viewBox="0 0 110 100" fill="none" xmlns="http://www.w3.org/2000/svg">
<g clip-path="url(#clip0_55_1133)">
<g clip-path="url(#clip1_55_1133)">
<path d="M81.5583 18.4285C81.5556 17.6049 81.0033 16.8843 80.2083 16.6677C70.5063 14.0144 62.6216 10.3199 56.102 5.37317C55.4467 4.87545 54.5408 4.87545 53.8855 5.37317C47.356 10.328 39.4713 14.0224 29.78 16.6668C28.9851 16.8843 28.4319 17.6049 28.4292 18.4285C28.414 22.3566 25.7821 25.803 22.0286 26.8101C21.2275 27.0249 20.6707 27.7509 20.6707 28.5808V53.4642C20.6707 73.5771 48.4446 89.6931 54.1057 92.7707C54.3778 92.9211 54.701 92.9999 55.0116 92.9999C55.3178 92.9999 55.7242 92.8656 55.9928 92.7197C61.5608 89.6931 89.3347 73.5771 89.3347 53.4642V28.5808C89.3347 27.7509 88.7779 27.0249 87.9767 26.8101C84.2125 25.8003 81.5735 22.3539 81.5583 18.4285ZM85.6681 53.4642C85.6681 70.7582 60.7999 85.8017 55.0009 89.0754C49.4875 85.9718 24.3373 70.8558 24.3373 53.4642V29.9003C28.5196 28.2308 31.4809 24.3546 32.0108 19.8501C41.0611 17.2567 48.6048 13.7324 54.9946 9.11414C61.3119 13.6688 69.032 17.2746 77.9766 19.8492C78.5075 24.3528 81.475 28.2299 85.6681 29.9003V53.4642Z" fill="#EF4942"/>
<path d="M68.051 42.8H67.035V34.9144C67.035 28.273 61.6397 22.8697 55.0082 22.8697C51.7882 22.8697 48.7634 24.1212 46.4879 26.3949C44.215 28.6696 42.9635 31.6944 42.9635 34.9144V42.8H41.9627C40.9503 42.8 40.1294 43.6209 40.1294 44.6334V63.2415C40.1294 66.3648 42.6708 68.9062 45.7941 68.9062H64.2008C67.3349 68.9062 69.8844 66.3648 69.8844 63.2415V44.6334C69.8844 43.6209 69.0635 42.8 68.051 42.8ZM46.6302 34.9144C46.6302 32.6737 47.5012 30.5692 49.0812 28.9883C50.663 27.4074 52.7676 26.5364 55.0082 26.5364C59.6184 26.5364 63.3683 30.2943 63.3683 34.9144V42.7982H46.6302V34.9144ZM66.2177 63.2415C66.2177 64.3435 65.3127 65.2396 64.2008 65.2396H45.7941C44.6921 65.2396 43.7961 64.3435 43.7961 63.2415V46.4667H66.2177V63.2415Z" fill="#EF4942"/>
<path d="M54.993 59.0358C56.0055 59.0358 56.8263 58.2149 56.8263 57.2024V54.4963C56.8263 53.4838 56.0055 52.663 54.993 52.663C53.9806 52.663 53.1597 53.4838 53.1597 54.4963V57.2024C53.1597 58.2149 53.9806 59.0358 54.993 59.0358Z" fill="#EF4942"/>
</g>
</g>
<defs>
<clipPath id="clip0_55_1133">
<rect width="110" height="100" fill="white"/>
</clipPath>
<clipPath id="clip1_55_1133">
<rect width="110" height="99" fill="white" transform="translate(0 -6)"/>
</clipPath>
</defs>
</svg>
