<svg width="110" height="100" viewBox="0 0 110 100" fill="none" xmlns="http://www.w3.org/2000/svg">
<path d="M100.219 19.0232L91.0805 3.79241C90.9469 3.56402 90.7555 3.37482 90.5256 3.24381C90.2957 3.11281 90.0353 3.04463 89.7707 3.04611H19.7091C19.4445 3.04463 19.1842 3.11281 18.9543 3.24381C18.7243 3.37482 18.5329 3.56402 18.3993 3.79241L9.26084 19.0232C9.12134 19.2583 9.04769 19.5266 9.04761 19.8V92.9076C9.04761 93.3116 9.20807 93.699 9.49371 93.9846C9.77934 94.2703 10.1667 94.4307 10.5707 94.4307H98.9092C99.3131 94.4307 99.7005 94.2703 99.9861 93.9846C100.272 93.699 100.432 93.3116 100.432 92.9076V19.8C100.432 19.5266 100.358 19.2583 100.219 19.0232ZM88.9025 6.09226L96.2133 18.2769H66.5285L62.8731 6.09226H88.9025ZM59.7051 6.09226L63.3605 18.2769H46.1193L49.7747 6.09226H59.7051ZM63.8784 21.323V30.4615H45.6015V21.323H63.8784ZM20.5773 6.09226H46.6067L42.9513 18.2769H13.2665L20.5773 6.09226ZM97.3861 91.3846H12.0938V21.323H42.5553V31.9846C42.5553 32.3885 42.7158 32.7759 43.0014 33.0615C43.287 33.3472 43.6744 33.5076 44.0784 33.5076H65.4015C65.8054 33.5076 66.1928 33.3472 66.4784 33.0615C66.7641 32.7759 66.9245 32.3885 66.9245 31.9846V21.323H97.3861V91.3846Z" fill="#EF4942"/>
<path d="M54.742 76.1538H53.2189C52.3777 76.1538 51.6958 76.8357 51.6958 77.6769C51.6958 78.5181 52.3777 79.2 53.2189 79.2H54.742C55.5831 79.2 56.265 78.5181 56.265 77.6769C56.265 76.8357 55.5831 76.1538 54.742 76.1538Z" fill="#EF4942"/>
<path d="M54.742 67.0152H56.265C56.669 67.0152 57.0564 66.8547 57.342 66.5691C57.6276 66.2835 57.7881 65.8961 57.7881 65.4921C57.7881 65.0882 57.6276 64.7008 57.342 64.4152C57.0564 64.1295 56.669 63.9691 56.265 63.9691H53.2189C52.8149 63.9691 52.4275 64.1295 52.1419 64.4152C51.8563 64.7008 51.6958 65.0882 51.6958 65.4921V68.5383C51.6958 68.9422 51.8563 69.3296 52.1419 69.6153C52.4275 69.9009 52.8149 70.0614 53.2189 70.0614C53.6228 70.0614 54.0102 69.9009 54.2959 69.6153C54.5815 69.3296 54.742 68.9422 54.742 68.5383V67.0152Z" fill="#EF4942"/>
<path d="M54.742 59.3998H53.2189C52.3777 59.3998 51.6958 60.0817 51.6958 60.9229C51.6958 61.7641 52.3777 62.446 53.2189 62.446H54.742C55.5831 62.446 56.265 61.7641 56.265 60.9229C56.265 60.0817 55.5831 59.3998 54.742 59.3998Z" fill="#EF4942"/>
<path d="M44.0801 60.9229H41.0339C41.0339 60.519 40.8735 60.1316 40.5878 59.8459C40.3022 59.5603 39.9148 59.3998 39.5109 59.3998C39.1069 59.3998 38.7195 59.5603 38.4339 59.8459C38.1483 60.1316 37.9878 60.519 37.9878 60.9229V63.9691C37.9878 64.373 38.1483 64.7604 38.4339 65.0461C38.7195 65.3317 39.1069 65.4921 39.5109 65.4921C39.9148 65.4921 40.3022 65.3317 40.5878 65.0461C40.8735 64.7604 41.0339 64.373 41.0339 63.9691H44.0801C44.484 63.9691 44.8714 63.8086 45.1571 63.523C45.4427 63.2373 45.6032 62.8499 45.6032 62.446C45.6032 62.042 45.4427 61.6546 45.1571 61.369C44.8714 61.0834 44.484 60.9229 44.0801 60.9229Z" fill="#EF4942"/>
<path d="M65.4019 60.9231H63.8788C63.0376 60.9231 62.3557 61.605 62.3557 62.4462C62.3557 63.2873 63.0376 63.9692 63.8788 63.9692H65.4019C66.243 63.9692 66.9249 63.2873 66.9249 62.4462C66.9249 61.605 66.243 60.9231 65.4019 60.9231Z" fill="#EF4942"/>
<path d="M54.742 71.5846H53.2189C52.3777 71.5846 51.6958 72.2665 51.6958 73.1077C51.6958 73.9488 52.3777 74.6307 53.2189 74.6307H54.742C55.5831 74.6307 56.265 73.9488 56.265 73.1077C56.265 72.2665 55.5831 71.5846 54.742 71.5846Z" fill="#EF4942"/>
<path d="M54.742 54.8306H53.2189C52.3777 54.8306 51.6958 55.5125 51.6958 56.3536C51.6958 57.1948 52.3777 57.8767 53.2189 57.8767H54.742C55.5831 57.8767 56.265 57.1948 56.265 56.3536C56.265 55.5125 55.5831 54.8306 54.742 54.8306Z" fill="#EF4942"/>
<path d="M71.4937 60.9229C71.4937 60.0817 70.8118 59.3998 69.9706 59.3998C69.1294 59.3998 68.4475 60.0817 68.4475 60.9229V62.446C68.4475 63.2872 69.1294 63.9691 69.9706 63.9691C70.8118 63.9691 71.4937 63.2872 71.4937 62.446V60.9229Z" fill="#EF4942"/>
<path d="M60.834 60.9229C60.834 60.0817 60.1521 59.3998 59.3109 59.3998C58.4697 59.3998 57.7878 60.0817 57.7878 60.9229V62.446C57.7878 63.2872 58.4697 63.9691 59.3109 63.9691C60.1521 63.9691 60.834 63.2872 60.834 62.446V60.9229Z" fill="#EF4942"/>
<path d="M50.1697 60.9229C50.1697 60.0817 49.4878 59.3998 48.6466 59.3998C47.8054 59.3998 47.1235 60.0817 47.1235 60.9229V63.9691C47.1235 64.8102 47.8054 65.4921 48.6466 65.4921C49.4878 65.4921 50.1697 64.8102 50.1697 63.9691V60.9229Z" fill="#EF4942"/>
<path d="M79.1092 36.5538H30.3707C29.9668 36.5538 29.5794 36.7143 29.2938 36.9999C29.0081 37.2856 28.8477 37.673 28.8477 38.0769V86.8154C28.8477 87.2193 29.0081 87.6067 29.2938 87.8924C29.5794 88.178 29.9668 88.3385 30.3707 88.3385H79.1092C79.5131 88.3385 79.9005 88.178 80.1862 87.8924C80.4718 87.6067 80.6323 87.2193 80.6323 86.8154V38.0769C80.6323 37.673 80.4718 37.2856 80.1862 36.9999C79.9005 36.7143 79.5131 36.5538 79.1092 36.5538ZM77.5861 85.2923H31.8938V39.6H77.5861V85.2923Z" fill="#EF4942"/>
<path d="M57.7881 47.2154C57.7881 47.6193 57.6276 48.0067 57.342 48.2924C57.0564 48.578 56.669 48.7385 56.265 48.7385H54.742V51.7846C54.742 52.1886 54.5815 52.576 54.2959 52.8616C54.0102 53.1472 53.6228 53.3077 53.2189 53.3077C52.8149 53.3077 52.4275 53.1472 52.1419 52.8616C51.8563 52.576 51.6958 52.1886 51.6958 51.7846V47.2154C51.6958 46.8115 51.8563 46.4241 52.1419 46.1384C52.4275 45.8528 52.8149 45.6923 53.2189 45.6923H56.265C56.669 45.6923 57.0564 45.8528 57.342 46.1384C57.6276 46.4241 57.7881 46.8115 57.7881 47.2154Z" fill="#EF4942"/>
<path d="M71.492 67.0154V77.677C71.492 78.0809 71.3315 78.4683 71.0459 78.754C70.7603 79.0396 70.3729 79.2001 69.9689 79.2001H60.8304C60.4265 79.2001 60.0391 79.0396 59.7535 78.754C59.4678 78.4683 59.3074 78.0809 59.3074 77.677C59.3074 77.273 59.4678 76.8856 59.7535 76.6C60.0391 76.3144 60.4265 76.1539 60.8304 76.1539H68.4458V67.0154C68.4458 66.6115 68.6063 66.2241 68.8919 65.9385C69.1776 65.6528 69.565 65.4924 69.9689 65.4924C70.3729 65.4924 70.7603 65.6528 71.0459 65.9385C71.3315 66.2241 71.492 66.6115 71.492 67.0154Z" fill="#EF4942"/>
<path d="M66.9263 73.1076C66.9263 73.5115 66.7658 73.8989 66.4802 74.1845C66.1946 74.4702 65.8072 74.6306 65.4032 74.6306H59.3109C58.907 74.6306 58.5196 74.4702 58.2339 74.1845C57.9483 73.8989 57.7878 73.5115 57.7878 73.1076V70.0614C57.7878 69.6575 57.9483 69.2701 58.2339 68.9844C58.5196 68.6988 58.907 68.5383 59.3109 68.5383C59.7149 68.5383 60.1023 68.6988 60.3879 68.9844C60.6735 69.2701 60.834 69.6575 60.834 70.0614V71.5845H65.4032C65.8072 71.5845 66.1946 71.7449 66.4802 72.0306C66.7658 72.3162 66.9263 72.7036 66.9263 73.1076Z" fill="#EF4942"/>
<path d="M65.4008 65.4924H62.3546C61.5134 65.4924 60.8315 66.1743 60.8315 67.0154C60.8315 67.8566 61.5134 68.5385 62.3546 68.5385H65.4008C66.2419 68.5385 66.9239 67.8566 66.9239 67.0154C66.9239 66.1743 66.2419 65.4924 65.4008 65.4924Z" fill="#EF4942"/>
<path d="M37.9878 68.5384V77.6769C37.9878 78.0808 38.1483 78.4682 38.4339 78.7538C38.7195 79.0395 39.1069 79.1999 39.5109 79.1999H48.6493C49.0533 79.1999 49.4407 79.0395 49.7263 78.7538C50.0119 78.4682 50.1724 78.0808 50.1724 77.6769V68.5384C50.1724 68.1345 50.0119 67.747 49.7263 67.4614C49.4407 67.1758 49.0533 67.0153 48.6493 67.0153H39.5109C39.1069 67.0153 38.7195 67.1758 38.4339 67.4614C38.1483 67.747 37.9878 68.1345 37.9878 68.5384ZM47.1263 76.1538H41.0339V70.0615H47.1263V76.1538Z" fill="#EF4942"/>
<path d="M59.3074 47.2154V56.3539C59.3074 56.7578 59.4678 57.1452 59.7535 57.4308C60.0391 57.7165 60.4265 57.8769 60.8304 57.8769H69.9689C70.3729 57.8769 70.7603 57.7165 71.0459 57.4308C71.3315 57.1452 71.492 56.7578 71.492 56.3539V47.2154C71.492 46.8115 71.3315 46.4241 71.0459 46.1384C70.7603 45.8528 70.3729 45.6923 69.9689 45.6923H60.8304C60.4265 45.6923 60.0391 45.8528 59.7535 46.1384C59.4678 46.4241 59.3074 46.8115 59.3074 47.2154ZM68.4458 54.8308H62.3535V48.7385H68.4458V54.8308Z" fill="#EF4942"/>
<path d="M37.9878 47.2154V56.3539C37.9878 56.7578 38.1483 57.1452 38.4339 57.4308C38.7195 57.7165 39.1069 57.8769 39.5109 57.8769H48.6493C49.0533 57.8769 49.4407 57.7165 49.7263 57.4308C50.0119 57.1452 50.1724 56.7578 50.1724 56.3539V47.2154C50.1724 46.8115 50.0119 46.4241 49.7263 46.1384C49.4407 45.8528 49.0533 45.6923 48.6493 45.6923H39.5109C39.1069 45.6923 38.7195 45.8528 38.4339 46.1384C38.1483 46.4241 37.9878 46.8115 37.9878 47.2154ZM47.1263 54.8308H41.0339V48.7385H47.1263V54.8308Z" fill="#EF4942"/>
</svg>
