<svg width="82" height="82" viewBox="0 0 82 82" fill="none" xmlns="http://www.w3.org/2000/svg">
<path d="M40.9993 61.8671L20.3552 41.2288L24.4852 37.0288L38.0827 50.6263V0.167969H43.916V50.6263L57.5077 37.0346L61.6435 41.2288L40.9993 61.8671ZM9.59268 81.8346C6.90546 81.8346 4.66351 80.9363 2.86685 79.1396C1.07018 77.343 0.169905 75.0991 0.166016 72.408V58.2738H5.99935V72.408C5.99935 73.3063 6.37268 74.1307 7.11935 74.8813C7.86601 75.6319 8.68851 76.0052 9.58685 76.0013H72.4118C73.3063 76.0013 74.1288 75.628 74.8793 74.8813C75.6299 74.1346 76.0032 73.3102 75.9993 72.408V58.2738H81.8327V72.408C81.8327 75.0952 80.9343 77.3371 79.1377 79.1338C77.341 80.9305 75.0971 81.8307 72.406 81.8346H9.59268Z" fill="#E94E24"/>
</svg>
